<svg width="531" height="185" viewBox="0 0 531 185" fill="none" xmlns="http://www.w3.org/2000/svg">
<ellipse cx="525.937" cy="4.14631" rx="4.00666" ry="4.61039" transform="rotate(90 525.937 4.14631)" fill="#2B357D"/>
<ellipse cx="525.938" cy="62.911" rx="4.00666" ry="4.61039" transform="rotate(90 525.938 62.911)" fill="#2B357D"/>
<ellipse cx="525.938" cy="121.675" rx="4.00666" ry="4.61039" transform="rotate(90 525.938 121.675)" fill="#2B357D"/>
<ellipse cx="525.938" cy="180.44" rx="4.00666" ry="4.61039" transform="rotate(90 525.938 180.44)" fill="#2B357D"/>
<ellipse cx="458.319" cy="4.14631" rx="4.00666" ry="4.61039" transform="rotate(90 458.319 4.14631)" fill="#2B357D"/>
<ellipse cx="458.319" cy="62.911" rx="4.00666" ry="4.61039" transform="rotate(90 458.319 62.911)" fill="#2B357D"/>
<ellipse cx="458.319" cy="121.675" rx="4.00666" ry="4.61039" transform="rotate(90 458.319 121.675)" fill="#2B357D"/>
<ellipse cx="458.319" cy="180.44" rx="4.00666" ry="4.61039" transform="rotate(90 458.319 180.44)" fill="#2B357D"/>
<ellipse cx="390.7" cy="4.14631" rx="4.00666" ry="4.61039" transform="rotate(90 390.7 4.14631)" fill="#2B357D"/>
<ellipse cx="390.7" cy="62.911" rx="4.00666" ry="4.61039" transform="rotate(90 390.7 62.911)" fill="#2B357D"/>
<ellipse cx="390.7" cy="121.675" rx="4.00666" ry="4.61039" transform="rotate(90 390.7 121.675)" fill="#2B357D"/>
<ellipse cx="390.7" cy="180.44" rx="4.00666" ry="4.61039" transform="rotate(90 390.7 180.44)" fill="#2B357D"/>
<ellipse cx="323.081" cy="4.14631" rx="4.00666" ry="4.61039" transform="rotate(90 323.081 4.14631)" fill="#2B357D"/>
<ellipse cx="323.081" cy="62.911" rx="4.00666" ry="4.61039" transform="rotate(90 323.081 62.911)" fill="#2B357D"/>
<ellipse cx="323.081" cy="121.675" rx="4.00666" ry="4.61039" transform="rotate(90 323.081 121.675)" fill="#2B357D"/>
<ellipse cx="323.081" cy="180.44" rx="4.00666" ry="4.61039" transform="rotate(90 323.081 180.44)" fill="#2B357D"/>
<ellipse cx="255.461" cy="4.14631" rx="4.00666" ry="4.61039" transform="rotate(90 255.461 4.14631)" fill="#2B357D"/>
<ellipse cx="255.461" cy="62.911" rx="4.00666" ry="4.61039" transform="rotate(90 255.461 62.911)" fill="#2B357D"/>
<ellipse cx="255.461" cy="121.675" rx="4.00666" ry="4.61039" transform="rotate(90 255.461 121.675)" fill="#2B357D"/>
<ellipse cx="255.461" cy="180.44" rx="4.00666" ry="4.61039" transform="rotate(90 255.461 180.44)" fill="#2B357D"/>
<ellipse cx="187.842" cy="4.14631" rx="4.00666" ry="4.61039" transform="rotate(90 187.842 4.14631)" fill="#2B357D"/>
<ellipse cx="187.842" cy="62.911" rx="4.00666" ry="4.61039" transform="rotate(90 187.842 62.911)" fill="#2B357D"/>
<ellipse cx="187.842" cy="121.675" rx="4.00666" ry="4.61039" transform="rotate(90 187.842 121.675)" fill="#2B357D"/>
<ellipse cx="187.842" cy="180.44" rx="4.00666" ry="4.61039" transform="rotate(90 187.842 180.44)" fill="#2B357D"/>
<ellipse cx="120.223" cy="4.14631" rx="4.00666" ry="4.61039" transform="rotate(90 120.223 4.14631)" fill="#2B357D"/>
<ellipse cx="120.223" cy="62.911" rx="4.00666" ry="4.61039" transform="rotate(90 120.223 62.911)" fill="#2B357D"/>
<ellipse cx="120.223" cy="121.675" rx="4.00666" ry="4.61039" transform="rotate(90 120.223 121.675)" fill="#2B357D"/>
<ellipse cx="120.223" cy="180.44" rx="4.00666" ry="4.61039" transform="rotate(90 120.223 180.44)" fill="#2B357D"/>
<ellipse cx="52.604" cy="4.14631" rx="4.00666" ry="4.61039" transform="rotate(90 52.604 4.14631)" fill="#2B357D"/>
<ellipse cx="52.604" cy="62.911" rx="4.00666" ry="4.61039" transform="rotate(90 52.604 62.911)" fill="#2B357D"/>
<ellipse cx="52.604" cy="121.675" rx="4.00666" ry="4.61039" transform="rotate(90 52.604 121.675)" fill="#2B357D"/>
<ellipse cx="52.604" cy="180.44" rx="4.00666" ry="4.61039" transform="rotate(90 52.604 180.44)" fill="#2B357D"/>
<ellipse cx="4.61031" cy="4.14631" rx="4.00666" ry="4.61039" transform="rotate(90 4.61031 4.14631)" fill="#2B357D"/>
<ellipse cx="4.61031" cy="62.911" rx="4.00666" ry="4.61039" transform="rotate(90 4.61031 62.911)" fill="#2B357D"/>
<ellipse cx="4.61031" cy="121.675" rx="4.00666" ry="4.61039" transform="rotate(90 4.61031 121.675)" fill="#2B357D"/>
<ellipse cx="4.61031" cy="180.44" rx="4.00666" ry="4.61039" transform="rotate(90 4.61031 180.44)" fill="#2B357D"/>
</svg>
