<svg width="21" height="22" viewBox="0 0 21 22" fill="none" xmlns="http://www.w3.org/2000/svg">
<path d="M10.2554 7.28814C8.41607 7.28814 6.91506 8.91309 6.91506 10.9043C6.91506 12.8954 8.41607 14.5204 10.2554 14.5204C12.0947 14.5204 13.5957 12.8954 13.5957 10.9043C13.5957 8.91309 12.0947 7.28814 10.2554 7.28814ZM20.2738 10.9043C20.2738 9.40681 20.2863 7.92293 20.2087 6.4282C20.131 4.69203 19.7651 3.15119 18.5924 1.88161C17.4171 0.609331 15.9963 0.215981 14.3926 0.131885C13.0093 0.0477899 11.6386 0.0613538 10.2579 0.0613538C8.87465 0.0613538 7.50394 0.0477899 6.12321 0.131885C4.51946 0.215981 3.09613 0.612044 1.92339 1.88161C0.74814 3.1539 0.38479 4.69203 0.307109 6.4282C0.229427 7.92564 0.241956 9.40952 0.241956 10.9043C0.241956 12.399 0.229427 13.8856 0.307109 15.3803C0.38479 17.1165 0.750646 18.6573 1.92339 19.9269C3.09864 21.1992 4.51946 21.5925 6.12321 21.6766C7.50645 21.7607 8.87715 21.7471 10.2579 21.7471C11.6411 21.7471 13.0118 21.7607 14.3926 21.6766C15.9963 21.5925 17.4196 21.1965 18.5924 19.9269C19.7676 18.6546 20.131 17.1165 20.2087 15.3803C20.2888 13.8856 20.2738 12.4017 20.2738 10.9043ZM10.2554 16.4681C7.41122 16.4681 5.11586 13.9832 5.11586 10.9043C5.11586 7.82527 7.41122 5.34038 10.2554 5.34038C13.0995 5.34038 15.3949 7.82527 15.3949 10.9043C15.3949 13.9832 13.0995 16.4681 10.2554 16.4681ZM15.6054 6.41192C14.9413 6.41192 14.4051 5.83139 14.4051 5.11251C14.4051 4.39363 14.9413 3.8131 15.6054 3.8131C16.2694 3.8131 16.8057 4.39363 16.8057 5.11251C16.8059 5.28321 16.775 5.45228 16.7147 5.61003C16.6545 5.76778 16.5661 5.91111 16.4546 6.03181C16.3431 6.15252 16.2107 6.24822 16.065 6.31345C15.9192 6.37867 15.7631 6.41214 15.6054 6.41192Z" fill="black"/>
</svg>
