<svg width="145" height="156" viewBox="0 0 145 156" fill="none" xmlns="http://www.w3.org/2000/svg">
<path d="M130.776 15.795C125.702 13.3185 119.88 12.3825 114.081 13.3185C111.543 8.6775 107.556 5.265 102.459 2.7885C98.4724 0.936 94.1003 0 89.3884 0C79.5795 0 70.1556 4.641 65.4211 12.0705C59.6218 21.0405 60.7092 30.03 67.9583 38.064C66.146 42.705 61.049 54.1515 51.9876 68.6985C42.9036 82.9335 34.2047 92.8395 30.5574 96.564C18.5738 95.628 9.1273 99.6645 3.32803 108.947C-3.94373 120.081 1.15329 134.335 14.2243 140.205C19.2987 142.682 25.1206 143.618 30.9199 142.682C33.4571 147.323 37.4441 150.735 42.5411 153.212C46.5281 155.064 50.9002 156 55.6121 156C65.4211 156 74.8449 151.359 79.5795 143.93C85.0163 135.564 83.5665 126.906 75.9549 117.624C77.4047 113.607 81.7542 101.537 91.5631 86.6775C100.647 72.1305 109.709 62.8485 113.356 58.812C126.064 60.0405 135.873 55.7115 141.673 47.0535C148.944 35.919 143.847 21.9765 130.776 15.795Z" fill="#4C57A4"/>
</svg>
