<svg width="169" height="138" viewBox="0 0 169 138" fill="none" xmlns="http://www.w3.org/2000/svg">
<path d="M7.80199 106.19C11.6518 110.32 16.7516 113.281 22.5012 114.485C23.2066 119.727 25.7059 124.342 29.5769 128.48C32.6352 131.639 36.3815 134.079 40.7804 135.768C49.9378 139.283 60.3989 138.328 67.4815 133.088C76.1102 126.792 78.3166 118.01 74.4281 107.912C77.7832 104.229 86.6437 95.3691 100.316 85.0356C113.898 75.0015 125.57 68.8709 130.309 66.7008C141.162 71.8692 151.427 71.4861 160.168 64.8989C170.947 57.1099 171.297 41.9755 161.197 31.8117C157.347 27.6811 152.247 24.7209 146.498 23.5165C145.792 18.2745 143.293 13.6598 139.422 9.52121C136.364 6.36294 132.618 3.92228 128.219 2.23368C119.061 -1.28152 108.6 -0.325981 101.518 4.91334C93.4439 10.7748 91.6947 19.3773 95.4743 30.7706C92.6812 34.0012 84.295 43.7113 69.8126 54.0681C56.1187 64.3935 44.3328 69.8117 39.4813 72.2731C28.0571 66.5718 17.3483 67.0981 8.83146 73.1027C-1.94756 80.8917 -2.18561 95.7348 7.80199 106.19Z" fill="#4C57A4"/>
</svg>
