<svg width="255" height="245" viewBox="0 0 255 245" fill="none" xmlns="http://www.w3.org/2000/svg">
<path d="M178.668 196.657C176.379 188.608 175.517 180.692 174.694 172.868C173.727 163.836 172.58 155.906 169.249 146.729C162.615 128.32 148.126 112.282 132.325 104.074C131.67 103.742 130.992 103.454 130.337 103.123C129.589 102.773 128.851 102.385 128.097 102.065C127.342 101.744 126.576 101.473 125.81 101.201C125.136 100.947 124.458 100.659 123.775 100.444C107.315 94.9698 88.4919 96.8889 75.0359 106.737C68.3208 111.683 63.9212 117.226 59.1576 123.826C55.0233 129.567 50.8774 135.357 45.5054 140.133C40.1294 144.875 33.5687 147.634 30.9181 154.67C26.414 166.538 28.5736 182.663 42.0397 195.294C57.6693 209.95 74.6333 208.443 88.5994 210.661C98.2628 212.178 104.495 214.877 112.699 220.89C127.981 232.096 139.427 244.15 157.39 244.257C173.885 244.342 182.692 232.874 184.233 219.748C185.101 211.956 180.968 204.657 178.668 196.657ZM58.5297 74.0361C61.4306 54.0769 50.8634 33.5802 34.9507 28.2835C19.0387 22.9877 3.72742 34.8799 0.82673 54.8383C-2.07416 74.7975 8.49303 95.2942 24.4057 100.591C40.3575 105.871 55.629 93.9945 58.5297 74.0361ZM100.075 75.274C116.116 79.2843 129.936 65.8795 130.909 45.316C131.893 24.7578 119.686 4.86291 103.654 0.857976C87.6125 -3.15236 73.7927 10.2525 72.8195 30.816C71.8134 51.3648 84.0101 71.2552 100.075 75.274ZM236.25 113.72C220.955 105.769 203.367 114.314 197.019 132.812C190.641 151.295 197.871 172.733 213.173 180.708C228.468 188.659 246.056 180.114 252.403 161.617C258.751 143.119 251.546 121.671 236.25 113.72ZM162.621 101.823C177.437 110.911 196.108 104.124 204.278 86.6168C212.479 69.1221 207.13 47.5813 192.293 38.483C177.455 29.3859 158.806 36.1827 150.636 53.6896C142.446 71.1889 147.806 92.7344 162.621 101.823Z" fill="#4C57A4"/>
</svg>
