<svg width="533" height="422" viewBox="0 0 533 422" fill="none" xmlns="http://www.w3.org/2000/svg">
<path d="M453.529 265.426C440.619 255.379 430.112 243.895 419.772 232.51C407.811 219.386 396.837 208.21 380.981 197.588C349.246 176.23 307.868 167.688 273.47 173.005C272.054 173.239 270.652 173.569 269.236 173.803C267.654 174.115 266.041 174.356 264.481 174.723C262.922 175.09 261.4 175.547 259.878 176.004C258.522 176.383 257.12 176.713 255.794 177.163C223.516 187.552 196.055 212.331 186.22 243.409C181.348 258.966 180.817 272.79 180.933 288.701C181.049 302.531 181.203 316.451 178.252 330.189C175.256 343.878 168.1 355.811 172.052 369.967C178.665 393.885 200.704 416.812 236.533 421.167C278.113 426.213 303.118 404.233 327.701 391.59C344.691 382.815 357.636 379.869 377.521 379.869C414.564 379.877 446.541 385.655 474.987 365.066C501.093 346.138 501.727 317.879 488.988 295.403C481.351 282.113 466.401 275.382 453.529 265.426ZM122.405 210.923C103.914 176.102 63.5659 155.996 32.3554 166.034C1.14714 176.072 -9.25123 212.517 9.23954 247.337C27.7308 282.159 68.0784 302.264 99.2889 292.227C130.542 282.118 140.896 245.744 122.405 210.923ZM189.339 164.865C219.266 152.65 225.565 115.545 203.336 81.9976C181.13 48.4466 138.892 31.1853 108.986 43.3975C79.0593 55.6122 72.7605 92.7179 94.9896 126.265C117.15 159.827 159.366 177.093 189.339 164.865ZM448.475 68.117C415.171 73.2563 397.315 107.054 408.683 143.554C419.986 180.067 456.16 205.514 489.502 200.405C522.806 195.266 540.662 161.468 529.294 124.968C517.926 88.4682 481.779 62.9764 448.475 68.117ZM318.637 134.446C352.499 131.653 374.094 99.3744 366.744 62.3303C359.457 25.2693 326.131 -2.51297 292.223 0.288087C258.316 3.09145 236.766 35.3594 244.116 72.4035C251.425 109.459 284.774 137.236 318.637 134.446Z" fill="#4C57A4"/>
</svg>
