<svg width="155" height="113" viewBox="0 0 155 113" fill="none" xmlns="http://www.w3.org/2000/svg">
<path fill-rule="evenodd" clip-rule="evenodd" d="M47.5856 47.1963C48.3821 47.548 49.7818 48.0139 51.7964 48.0974C53.7993 48.1853 56.4875 47.8952 59.8257 46.603C60.464 46.6205 61.2019 46.7744 62.0394 47.0205C63.3161 47.3897 64.7743 47.9743 66.3732 48.7303C63.849 50.1193 61.0321 51.4467 57.8989 52.6994C53.2196 54.5762 52.1361 56.9453 52.8447 58.765C53.2898 59.9078 54.4846 60.932 56.2474 61.6045C58.5665 62.4879 61.9164 62.7692 65.5064 61.8858C69.237 60.9627 73.9924 58.7079 78.6015 55.8201C80.7391 57.2178 82.9293 58.7123 85.1314 60.2639C82.2617 61.9253 78.9411 63.5121 75.1286 65.0153C71.2574 66.5449 69.9163 68.3558 69.9866 69.881C70.051 71.3842 71.4683 72.8171 73.887 73.7621C76.9734 74.9665 81.723 75.4148 86.4023 74.2808C89.8166 73.4588 93.7638 71.7534 97.6408 69.5425C99.8428 71.2523 101.963 72.9358 103.942 74.5445C100.78 76.206 97.102 77.7575 92.862 79.1904C88.8737 80.5398 87.392 82.2848 87.3335 83.81C87.2749 85.3132 88.5751 86.8077 90.9118 87.8626C93.8927 89.2076 98.5955 89.8713 103.357 88.9614C106.964 88.2669 111.228 86.6538 115.433 84.5045C115.942 84.9968 116.364 85.4187 116.686 85.766C116.504 85.8802 116.323 85.9989 116.141 86.122C111.374 89.3306 109.406 94.0337 109.225 98.6005C109.043 103.123 110.613 107.492 112.78 110.09C114.367 111.993 116.376 112.965 118.232 112.872C119.14 112.828 120.059 112.547 120.938 111.954C122.712 110.758 123.86 109.044 124.651 107.141C125.728 104.569 126.156 101.647 126.964 99.4488C127.233 98.7148 127.532 98.0731 127.954 97.5808C128.229 97.2599 128.539 97.0094 128.985 96.9171C129.418 96.8248 129.933 96.8775 130.56 97.0358C134.677 98.0775 141.061 100.007 145.962 100.372C148.873 100.592 151.315 100.231 152.797 99.1412C154.278 98.0511 155.005 96.1479 153.951 93.014C151.262 85.01 139.825 80.1662 128.51 81.5903C127.889 80.3025 127.11 78.9926 126.191 77.6696C129.898 74.7511 132.82 71.6523 134.197 68.87C136.879 63.4285 132.311 58.0793 127.626 56.4179C125.834 55.7806 124.012 55.6619 122.484 56.1234C120.949 56.5805 119.62 57.6222 118.952 59.4903C118.168 61.7143 116.944 63.8593 115.239 65.9119C113.36 64.2549 111.368 62.611 109.319 61.0023C112.264 58.2156 114.513 55.3586 115.538 52.8093C117.775 47.2579 112.78 42.1284 107.966 40.6868C106.121 40.1329 104.3 40.0978 102.812 40.6252C101.313 41.1571 100.071 42.2559 99.5617 44.1547C98.8941 46.6293 97.7053 49.038 95.9073 51.3632C93.7639 49.9303 91.6497 48.5721 89.6175 47.293C91.515 45.425 93.0611 43.5701 94.0742 41.8515C97.2367 36.4891 94.1796 31.4344 90.6013 29.9356C89.1138 29.3071 87.515 29.2191 86.0567 29.7466C84.7683 30.2125 83.5209 31.2103 82.6893 32.9684C81.5063 35.4562 79.8782 37.8605 77.7464 40.1593C74.8416 38.4978 72.6864 37.3199 71.6615 36.7704C71.7787 36.3924 71.8665 36.0232 71.931 35.6628C72.5049 32.2476 70.6308 29.6235 70.1799 29.0521C71.3921 26.9687 72.1828 24.9205 72.4463 23.0304C72.7684 20.6657 72.2882 18.5207 70.8651 16.7758C68.8797 14.3363 64.6982 11.6815 59.2576 9.27282C51.3396 5.7653 40.7336 2.72808 30.7132 1.47979C19.1818 0.038096 8.4528 1.04903 3.07657 6.03781C1.54803 7.45313 0.728139 9.48821 0.611009 11.9452C0.447028 15.3385 1.60659 19.58 3.80277 23.9798C7.04725 30.4938 19.1818 42.2603 19.1818 42.2603C23.7206 45.614 28.7923 48.0622 34.028 48.9369C38.2505 49.6446 42.9532 48.9193 47.5856 47.1963ZM48.7687 46.7348L48.6339 46.792C48.4934 46.8667 48.347 46.9194 48.2123 46.959C48.1596 46.981 48.101 47.0029 48.0425 47.0249C48.3177 46.981 48.5695 46.8799 48.7687 46.7348Z" fill="#4C57A4"/>
</svg>
