<svg width="226" height="120" viewBox="0 0 226 120" fill="none" xmlns="http://www.w3.org/2000/svg">
<path d="M18.5542 102.494L17.9149 67.0094C20.9552 68.3945 24.9846 69.4491 30.0552 70.1381C47.4587 72.5637 75.0771 70.5823 103.929 64.8547C132.78 59.127 158.094 50.6 171.621 42.034C175.571 39.5418 178.379 37.13 180.113 34.8094L202.934 65.8908C204.568 68.1285 203.562 70.9024 200.632 72.2283C175.118 83.7353 147.654 92.567 118.995 98.476C88.4053 104.805 56.6152 107.724 24.7464 107.158C21.3219 107.081 18.6042 105.034 18.5542 102.494ZM175.7 28.6454C176.339 30.4584 174.844 32.9026 171.554 35.6053C169.274 30.5676 163.92 26.6769 157.214 25.1293C157.263 24.302 157.21 23.4585 157.081 22.6302C167.746 23.4653 174.643 25.6463 175.7 28.6454ZM38.042 48.8854C36.5968 47.5984 35.5319 46.053 34.9452 44.3882C34.8849 44.2172 34.8094 44.0492 34.7836 43.8835C34.7706 43.8007 34.7617 43.7292 34.7336 43.6494C33.1099 37.5665 38.1126 31.5592 46.1193 29.9697C46.9701 29.8007 47.8258 29.6919 48.656 29.6491C49.5622 29.5912 50.3925 29.1335 50.9387 28.5615C51.5 27.9864 51.6298 27.1554 51.3927 26.4827C49.1784 20.2 54.1956 13.726 62.5668 12.0641C64.0253 11.7745 65.4905 11.6423 66.9207 11.6878C68.431 11.7296 69.7663 10.952 70.0932 9.85011C71.3945 5.51678 75.7281 2.13094 81.4257 0.999846C87.1232 -0.131254 93.1206 1.20361 97.1025 4.47594C98.1126 5.31245 99.7855 5.49276 101.071 4.89601C102.288 4.33715 103.649 3.90841 105.107 3.61888C113.478 1.95701 122.104 5.72252 124.391 12.2107C124.628 12.8835 125.252 13.4551 126.104 13.7496C126.955 14.0441 127.931 14.0456 128.768 13.7452C129.533 13.4714 130.349 13.2485 131.2 13.0796C139.206 11.49 147.512 14.8556 150.093 20.7482C150.121 20.828 150.161 20.8934 150.204 20.9702C150.306 21.1208 150.351 21.2949 150.411 21.4659C150.998 23.1307 151.09 24.8691 150.682 26.524C150.529 27.1522 150.72 27.7853 151.199 28.3126C151.692 28.8368 152.43 29.1783 153.263 29.2814C159.391 30.0169 164.373 33.4076 165.957 37.9004C166.118 38.3565 166.186 38.7821 166.27 39.2046C153.102 47.0894 129.41 54.9161 102.324 60.2933C75.2385 65.6704 49.4887 67.659 32.8484 65.6919C32.643 65.2935 32.4224 64.898 32.2616 64.4419C30.6782 59.9492 32.7755 55.153 37.6019 52.2428C38.258 51.8442 38.6857 51.259 38.7582 50.6346C38.8419 49.9957 38.5843 49.3633 38.042 48.8854ZM29.9116 47.8642C30.3449 48.6322 30.8693 49.3821 31.4424 50.0857C26.6174 53.9229 24.546 59.2996 25.8794 64.5129C21.2431 63.3959 18.3329 61.8265 17.6939 60.0134C16.637 57.0147 21.1803 52.5622 29.9116 47.8642ZM120.008 110.466C53.7518 123.619 3.76705 121.964 0.347116 112.26C-0.786207 109.045 3.50236 104.424 12.2117 99.3396L12.274 102.56C12.3625 107.655 17.7737 111.754 24.5914 111.864C56.0155 112.421 87.2763 109.656 117.586 103.639C118.604 103.436 119.637 103.231 120.651 103.018C149.871 96.9975 177.864 87.9995 203.869 76.2733C209.703 73.6389 211.71 68.0797 208.431 63.6187L206.364 60.7959C217.283 61.9832 224.07 64.4056 225.204 67.6212C228.624 77.3248 186.263 97.3124 120.008 110.466Z" fill="#4C57A4"/>
</svg>
