<svg width="102" height="18" viewBox="0 0 102 18" fill="none" xmlns="http://www.w3.org/2000/svg">
<path d="M21.0749 2.79559C20.3297 3.11339 19.5187 3.34211 18.6834 3.43119C19.5506 2.92184 20.2001 2.11714 20.5099 1.16808C19.6961 1.64668 18.8045 1.98228 17.8748 2.16C17.4862 1.74933 17.0163 1.42217 16.4942 1.19891C15.9721 0.975651 15.4091 0.861073 14.8403 0.862315C12.5389 0.862315 10.688 2.70651 10.688 4.96963C10.688 5.28743 10.727 5.60523 10.7903 5.91099C7.3442 5.73283 4.27074 4.10531 2.22745 1.61348C1.85514 2.24213 1.66004 2.95793 1.66244 3.6864C1.66244 5.11168 2.39549 6.36843 3.51334 7.10755C2.85458 7.08191 2.21124 6.90291 1.63565 6.58511V6.63567C1.63565 8.63155 3.06279 10.2856 4.96483 10.6659C4.6077 10.7577 4.24032 10.8046 3.87134 10.8056C3.60101 10.8056 3.3453 10.7791 3.08714 10.743C3.61319 12.3705 5.14505 13.5526 6.96915 13.5911C5.54201 14.6962 3.75444 15.3463 1.81344 15.3463C1.46518 15.3463 1.14371 15.3342 0.810059 15.2957C2.65121 16.4634 4.83575 17.1375 7.18834 17.1375C14.8257 17.1375 19.0048 10.8826 19.0048 5.45355C19.0048 5.27539 19.0048 5.09723 18.9927 4.91907C19.8012 4.33403 20.5099 3.60935 21.0749 2.79559Z" fill="white"/>
<path d="M53.3057 0.912109C48.7602 0.912109 45.075 4.55531 45.075 9.04889C45.075 13.1096 48.0844 16.4753 52.02 17.088V11.4015H49.9291V9.04889H52.02V7.25618C52.02 5.21527 53.2489 4.08984 55.1282 4.08984C56.0288 4.08984 56.9721 4.24852 56.9721 4.24852V6.24956H55.9316C54.9109 6.24956 54.5915 6.87778 54.5915 7.52146V9.04726H56.8725L56.5078 11.3998H54.5915V17.0864C58.5271 16.4769 61.5365 13.1104 61.5365 9.04889C61.5365 4.55531 57.8512 0.912109 53.3057 0.912109Z" fill="white"/>
<path d="M93.7662 6.28621C92.2547 6.28621 91.0211 7.50564 91.0211 8.9999C91.0211 10.4942 92.2547 11.7136 93.7662 11.7136C95.2777 11.7136 96.5112 10.4942 96.5112 8.9999C96.5112 7.50564 95.2777 6.28621 93.7662 6.28621ZM101.999 8.9999C101.999 7.87615 102.01 6.76258 101.946 5.64087C101.882 4.33798 101.581 3.18166 100.617 2.22891C99.6516 1.27414 98.484 0.978949 97.1661 0.91584C96.0293 0.852731 94.9029 0.86291 93.7682 0.86291C92.6315 0.86291 91.5051 0.852731 90.3704 0.91584C89.0524 0.978949 87.8828 1.27617 86.919 2.22891C85.9532 3.18369 85.6546 4.33798 85.5908 5.64087C85.5269 6.76462 85.5372 7.87819 85.5372 8.9999C85.5372 10.1216 85.5269 11.2372 85.5908 12.3589C85.6546 13.6618 85.9553 14.8181 86.919 15.7709C87.8848 16.7257 89.0524 17.0209 90.3704 17.084C91.5071 17.1471 92.6336 17.1369 93.7682 17.1369C94.905 17.1369 96.0314 17.1471 97.1661 17.084C98.484 17.0209 99.6537 16.7236 100.617 15.7709C101.583 14.8161 101.882 13.6618 101.946 12.3589C102.012 11.2372 101.999 10.1236 101.999 8.9999ZM93.7662 13.1753C91.4289 13.1753 89.5426 11.3105 89.5426 8.9999C89.5426 6.6893 91.4289 4.82453 93.7662 4.82453C96.1035 4.82453 97.9898 6.6893 97.9898 8.9999C97.9898 11.3105 96.1035 13.1753 93.7662 13.1753ZM98.1628 5.62866C97.6171 5.62866 97.1764 5.193 97.1764 4.65352C97.1764 4.11404 97.6171 3.67839 98.1628 3.67839C98.7085 3.67839 99.1492 4.11404 99.1492 4.65352C99.1493 4.78162 99.1239 4.9085 99.0744 5.02688C99.0249 5.14526 98.9522 5.25282 98.8606 5.34341C98.769 5.43399 98.6602 5.50581 98.5404 5.55476C98.4207 5.60371 98.2923 5.62882 98.1628 5.62866Z" fill="white"/>
</svg>
