<svg width="26" height="22" viewBox="0 0 26 22" fill="none" xmlns="http://www.w3.org/2000/svg">
<path d="M25.0261 2.63576C24.1192 3.05925 23.1324 3.36402 22.1159 3.48273C23.1712 2.80399 23.9615 1.73169 24.3385 0.467024C23.3482 1.10478 22.2633 1.55198 21.132 1.7888C20.6592 1.24157 20.0873 0.805617 19.452 0.508113C18.8167 0.21061 18.1317 0.0579284 17.4395 0.0595836C14.639 0.0595836 12.3867 2.51706 12.3867 5.53276C12.3867 5.95625 12.4341 6.37973 12.5112 6.78717C8.3178 6.54976 4.57785 4.38102 2.09146 1.06054C1.63842 1.89825 1.401 2.85208 1.40393 3.8228C1.40393 5.72205 2.29594 7.39673 3.6562 8.38164C2.85458 8.34746 2.07173 8.10894 1.37133 7.68546V7.75283C1.37133 10.4124 3.10795 12.6165 5.42245 13.1234C4.98787 13.2456 4.54082 13.3081 4.09183 13.3094C3.76288 13.3094 3.45171 13.2741 3.13758 13.226C3.7777 15.3948 5.64175 16.97 7.86142 17.0213C6.1248 18.4939 3.94958 19.3601 1.58767 19.3601C1.16388 19.3601 0.7727 19.344 0.366699 19.2927C2.60711 20.8487 5.26538 21.747 8.12813 21.747C17.4217 21.747 22.5071 13.4121 22.5071 6.17761C22.5071 5.9402 22.5071 5.7028 22.4923 5.46539C23.4762 4.6858 24.3385 3.72013 25.0261 2.63576Z" fill="black"/>
</svg>
